<svg xmlns="http://www.w3.org/2000/svg" viewBox="0 0 32 32">
<rect x="0" y="0" width="32" height="32" rx="7.04" fill="#FAFAFA"/>
<path transform="translate(5.29 20.7)" d="M7.69 0L1.06 0L1.06-9.50L2.74-9.50L2.74-1.53L7.69-1.53L7.69 0M12.22 0.09Q11.83 0.09 11.44 0.01Q11.05-0.07 10.69-0.27Q10.34-0.47 10.04-0.81L10 0L8.41 0L8.41-9.50L10.05-9.50L10.05-6.20Q10.44-6.69 11.05-6.94Q11.67-7.19 12.32-7.19Q13.37-7.19 14.05-6.71Q14.73-6.24 15.06-5.42Q15.39-4.60 15.39-3.56Q15.39-2.53 15.05-1.70Q14.70-0.87 14-0.39Q13.31 0.09 12.22 0.09M11.95-1.36Q12.63-1.36 13.03-1.67Q13.43-1.99 13.60-2.50Q13.78-3.01 13.78-3.58Q13.78-4.15 13.59-4.64Q13.41-5.12 13.01-5.42Q12.61-5.71 11.93-5.71Q11.32-5.71 10.89-5.40Q10.47-5.08 10.25-4.58Q10.04-4.07 10.04-3.53Q10.04-2.97 10.23-2.47Q10.43-1.98 10.85-1.67Q11.28-1.36 11.95-1.36" fill="#0A0A0A"/>
<rect x="21.62" y="16.67" width="4.03" height="4.03" fill="#F38230"/>
</svg>
